<?xml version="1.0" encoding="UTF-8" standalone="no"?>
<!DOCTYPE svg PUBLIC "-//W3C//DTD SVG 1.1//EN"
 "http://www.w3.org/Graphics/SVG/1.1/DTD/svg11.dtd">
<!-- Generated by graphviz version 14.1.1 (20251213.1925)
 -->
<!-- Title: InheritanceTree Pages: 1 -->
<svg width="483pt" height="717pt"
 viewBox="0.00 0.00 483.00 717.00" xmlns="http://www.w3.org/2000/svg" xmlns:xlink="http://www.w3.org/1999/xlink">
<g id="graph0" class="graph" transform="scale(1 1) rotate(0) translate(4 712.5)">
<title>InheritanceTree</title>
<polygon fill="white" stroke="none" points="-4,4 -4,-712.5 479.25,-712.5 479.25,4 -4,4"/>
<text xml:space="preserve" text-anchor="middle" x="237.62" y="-7.2" font-family="Times New Roman,serif" font-size="14.00">simple_datetime &#45; Inheritance Hierarchy</text>
<!-- SIMPLE_AGE -->
<g id="node1" class="node">
<title>SIMPLE_AGE</title>
<path fill="none" stroke="black" d="M147.62,-60.5C147.62,-60.5 72.38,-60.5 72.38,-60.5 66.38,-60.5 60.38,-54.5 60.38,-48.5 60.38,-48.5 60.38,-36.5 60.38,-36.5 60.38,-30.5 66.38,-24.5 72.38,-24.5 72.38,-24.5 147.62,-24.5 147.62,-24.5 153.62,-24.5 159.62,-30.5 159.62,-36.5 159.62,-36.5 159.62,-48.5 159.62,-48.5 159.62,-54.5 153.62,-60.5 147.62,-60.5"/>
<text xml:space="preserve" text-anchor="middle" x="110" y="-37.45" font-family="Times New Roman,serif" font-size="14.00">SIMPLE_AGE</text>
</g>
<!-- ANY -->
<g id="node2" class="node">
<title>ANY</title>
<path fill="none" stroke="black" d="M416.62,-60.5C416.62,-60.5 386.62,-60.5 386.62,-60.5 380.62,-60.5 374.62,-54.5 374.62,-48.5 374.62,-48.5 374.62,-36.5 374.62,-36.5 374.62,-30.5 380.62,-24.5 386.62,-24.5 386.62,-24.5 416.62,-24.5 416.62,-24.5 422.62,-24.5 428.62,-30.5 428.62,-36.5 428.62,-36.5 428.62,-48.5 428.62,-48.5 428.62,-54.5 422.62,-60.5 416.62,-60.5"/>
<text xml:space="preserve" text-anchor="middle" x="401.62" y="-37.45" font-family="Times New Roman,serif" font-size="14.00">ANY</text>
</g>
<!-- SIMPLE_AGE&#45;&gt;ANY -->
<g id="edge1" class="edge">
<title>SIMPLE_AGE&#45;&gt;ANY</title>
<path fill="none" stroke="black" d="M159.8,-42.5C159.8,-42.5 362.89,-42.5 362.89,-42.5"/>
<polygon fill="none" stroke="black" points="362.89,-46 372.89,-42.5 362.89,-39 362.89,-46"/>
</g>
<!-- SIMPLE_DATE -->
<g id="node3" class="node">
<title>SIMPLE_DATE</title>
<path fill="none" stroke="black" d="M151,-348.5C151,-348.5 69,-348.5 69,-348.5 63,-348.5 57,-342.5 57,-336.5 57,-336.5 57,-324.5 57,-324.5 57,-318.5 63,-312.5 69,-312.5 69,-312.5 151,-312.5 151,-312.5 157,-312.5 163,-318.5 163,-324.5 163,-324.5 163,-336.5 163,-336.5 163,-342.5 157,-348.5 151,-348.5"/>
<text xml:space="preserve" text-anchor="middle" x="110" y="-325.45" font-family="Times New Roman,serif" font-size="14.00">SIMPLE_DATE</text>
</g>
<!-- COMPARABLE -->
<g id="node4" class="node">
<title>COMPARABLE</title>
<path fill="none" stroke="black" d="M443.75,-240.5C443.75,-240.5 359.5,-240.5 359.5,-240.5 353.5,-240.5 347.5,-234.5 347.5,-228.5 347.5,-228.5 347.5,-216.5 347.5,-216.5 347.5,-210.5 353.5,-204.5 359.5,-204.5 359.5,-204.5 443.75,-204.5 443.75,-204.5 449.75,-204.5 455.75,-210.5 455.75,-216.5 455.75,-216.5 455.75,-228.5 455.75,-228.5 455.75,-234.5 449.75,-240.5 443.75,-240.5"/>
<text xml:space="preserve" text-anchor="middle" x="401.62" y="-217.45" font-family="Times New Roman,serif" font-size="14.00">COMPARABLE</text>
</g>
<!-- SIMPLE_DATE&#45;&gt;COMPARABLE -->
<g id="edge2" class="edge">
<title>SIMPLE_DATE&#45;&gt;COMPARABLE</title>
<path fill="none" stroke="black" d="M163.16,-330.5C251.58,-330.5 419.25,-330.5 419.25,-330.5 419.25,-330.5 419.25,-252.33 419.25,-252.33"/>
<polygon fill="none" stroke="black" points="422.75,-252.33 419.25,-242.33 415.75,-252.33 422.75,-252.33"/>
</g>
<!-- SIMPLE_DATETIME -->
<g id="node5" class="node">
<title>SIMPLE_DATETIME</title>
<path fill="none" stroke="black" d="M167.88,-420.5C167.88,-420.5 52.12,-420.5 52.12,-420.5 46.12,-420.5 40.12,-414.5 40.12,-408.5 40.12,-408.5 40.12,-396.5 40.12,-396.5 40.12,-390.5 46.12,-384.5 52.12,-384.5 52.12,-384.5 167.88,-384.5 167.88,-384.5 173.88,-384.5 179.88,-390.5 179.88,-396.5 179.88,-396.5 179.88,-408.5 179.88,-408.5 179.88,-414.5 173.88,-420.5 167.88,-420.5"/>
<text xml:space="preserve" text-anchor="middle" x="110" y="-397.45" font-family="Times New Roman,serif" font-size="14.00">SIMPLE_DATETIME</text>
</g>
<!-- SIMPLE_DATE_RANGE -->
<g id="node6" class="node">
<title>SIMPLE_DATE_RANGE</title>
<path fill="none" stroke="black" d="M177.62,-492.5C177.62,-492.5 42.38,-492.5 42.38,-492.5 36.38,-492.5 30.38,-486.5 30.38,-480.5 30.38,-480.5 30.38,-468.5 30.38,-468.5 30.38,-462.5 36.38,-456.5 42.38,-456.5 42.38,-456.5 177.62,-456.5 177.62,-456.5 183.62,-456.5 189.62,-462.5 189.62,-468.5 189.62,-468.5 189.62,-480.5 189.62,-480.5 189.62,-486.5 183.62,-492.5 177.62,-492.5"/>
<text xml:space="preserve" text-anchor="middle" x="110" y="-469.45" font-family="Times New Roman,serif" font-size="14.00">SIMPLE_DATE_RANGE</text>
</g>
<!-- ITERABLE -->
<g id="node7" class="node">
<title>ITERABLE</title>
<path fill="none" stroke="black" d="M430.25,-492.5C430.25,-492.5 373,-492.5 373,-492.5 367,-492.5 361,-486.5 361,-480.5 361,-480.5 361,-468.5 361,-468.5 361,-462.5 367,-456.5 373,-456.5 373,-456.5 430.25,-456.5 430.25,-456.5 436.25,-456.5 442.25,-462.5 442.25,-468.5 442.25,-468.5 442.25,-480.5 442.25,-480.5 442.25,-486.5 436.25,-492.5 430.25,-492.5"/>
<text xml:space="preserve" text-anchor="middle" x="401.62" y="-469.45" font-family="Times New Roman,serif" font-size="14.00">ITERABLE</text>
</g>
<!-- SIMPLE_DATE_RANGE&#45;&gt;ITERABLE -->
<g id="edge3" class="edge">
<title>SIMPLE_DATE_RANGE&#45;&gt;ITERABLE</title>
<path fill="none" stroke="black" d="M190.07,-480.5C190.07,-480.5 349.21,-480.5 349.21,-480.5"/>
<polygon fill="none" stroke="black" points="349.21,-484 359.21,-480.5 349.21,-477 349.21,-484"/>
</g>
<!-- MML_MODEL -->
<g id="node8" class="node">
<title>MML_MODEL</title>
<path fill="none" stroke="black" d="M442.25,-420.5C442.25,-420.5 361,-420.5 361,-420.5 355,-420.5 349,-414.5 349,-408.5 349,-408.5 349,-396.5 349,-396.5 349,-390.5 355,-384.5 361,-384.5 361,-384.5 442.25,-384.5 442.25,-384.5 448.25,-384.5 454.25,-390.5 454.25,-396.5 454.25,-396.5 454.25,-408.5 454.25,-408.5 454.25,-414.5 448.25,-420.5 442.25,-420.5"/>
<text xml:space="preserve" text-anchor="middle" x="401.62" y="-397.45" font-family="Times New Roman,serif" font-size="14.00">MML_MODEL</text>
</g>
<!-- SIMPLE_DATE_RANGE&#45;&gt;MML_MODEL -->
<g id="edge4" class="edge">
<title>SIMPLE_DATE_RANGE&#45;&gt;MML_MODEL</title>
<path fill="none" stroke="black" d="M189.96,-468.5C261.53,-468.5 355.25,-468.5 355.25,-468.5 355.25,-468.5 355.25,-432.4 355.25,-432.4"/>
<polygon fill="none" stroke="black" points="358.75,-432.4 355.25,-422.4 351.75,-432.4 358.75,-432.4"/>
</g>
<!-- SIMPLE_DATE_RANGE_CURSOR -->
<g id="node9" class="node">
<title>SIMPLE_DATE_RANGE_CURSOR</title>
<path fill="none" stroke="black" d="M208,-564.5C208,-564.5 12,-564.5 12,-564.5 6,-564.5 0,-558.5 0,-552.5 0,-552.5 0,-540.5 0,-540.5 0,-534.5 6,-528.5 12,-528.5 12,-528.5 208,-528.5 208,-528.5 214,-528.5 220,-534.5 220,-540.5 220,-540.5 220,-552.5 220,-552.5 220,-558.5 214,-564.5 208,-564.5"/>
<text xml:space="preserve" text-anchor="middle" x="110" y="-541.45" font-family="Times New Roman,serif" font-size="14.00">SIMPLE_DATE_RANGE_CURSOR</text>
</g>
<!-- ITERATION_CURSOR -->
<g id="node10" class="node">
<title>ITERATION_CURSOR</title>
<path fill="none" stroke="black" d="M463.25,-564.5C463.25,-564.5 340,-564.5 340,-564.5 334,-564.5 328,-558.5 328,-552.5 328,-552.5 328,-540.5 328,-540.5 328,-534.5 334,-528.5 340,-528.5 340,-528.5 463.25,-528.5 463.25,-528.5 469.25,-528.5 475.25,-534.5 475.25,-540.5 475.25,-540.5 475.25,-552.5 475.25,-552.5 475.25,-558.5 469.25,-564.5 463.25,-564.5"/>
<text xml:space="preserve" text-anchor="middle" x="401.62" y="-541.45" font-family="Times New Roman,serif" font-size="14.00">ITERATION_CURSOR</text>
</g>
<!-- SIMPLE_DATE_RANGE_CURSOR&#45;&gt;ITERATION_CURSOR -->
<g id="edge5" class="edge">
<title>SIMPLE_DATE_RANGE_CURSOR&#45;&gt;ITERATION_CURSOR</title>
<path fill="none" stroke="black" d="M220.25,-546.5C220.25,-546.5 316.37,-546.5 316.37,-546.5"/>
<polygon fill="none" stroke="black" points="316.37,-550 326.37,-546.5 316.37,-543 316.37,-550"/>
</g>
<!-- SIMPLE_DATE_TIME -->
<g id="node11" class="node">
<title>SIMPLE_DATE_TIME</title>
<path fill="none" stroke="black" d="M171.25,-276.5C171.25,-276.5 48.75,-276.5 48.75,-276.5 42.75,-276.5 36.75,-270.5 36.75,-264.5 36.75,-264.5 36.75,-252.5 36.75,-252.5 36.75,-246.5 42.75,-240.5 48.75,-240.5 48.75,-240.5 171.25,-240.5 171.25,-240.5 177.25,-240.5 183.25,-246.5 183.25,-252.5 183.25,-252.5 183.25,-264.5 183.25,-264.5 183.25,-270.5 177.25,-276.5 171.25,-276.5"/>
<text xml:space="preserve" text-anchor="middle" x="110" y="-253.45" font-family="Times New Roman,serif" font-size="14.00">SIMPLE_DATE_TIME</text>
</g>
<!-- SIMPLE_DATE_TIME&#45;&gt;COMPARABLE -->
<g id="edge6" class="edge">
<title>SIMPLE_DATE_TIME&#45;&gt;COMPARABLE</title>
<path fill="none" stroke="black" d="M183.49,-258.5C264.73,-258.5 384.25,-258.5 384.25,-258.5 384.25,-258.5 384.25,-252.44 384.25,-252.44"/>
<polygon fill="none" stroke="black" points="387.75,-252.44 384.25,-242.44 380.75,-252.44 387.75,-252.44"/>
</g>
<!-- SIMPLE_DURATION -->
<g id="node12" class="node">
<title>SIMPLE_DURATION</title>
<path fill="none" stroke="black" d="M168.25,-204.5C168.25,-204.5 51.75,-204.5 51.75,-204.5 45.75,-204.5 39.75,-198.5 39.75,-192.5 39.75,-192.5 39.75,-180.5 39.75,-180.5 39.75,-174.5 45.75,-168.5 51.75,-168.5 51.75,-168.5 168.25,-168.5 168.25,-168.5 174.25,-168.5 180.25,-174.5 180.25,-180.5 180.25,-180.5 180.25,-192.5 180.25,-192.5 180.25,-198.5 174.25,-204.5 168.25,-204.5"/>
<text xml:space="preserve" text-anchor="middle" x="110" y="-181.45" font-family="Times New Roman,serif" font-size="14.00">SIMPLE_DURATION</text>
</g>
<!-- SIMPLE_DURATION&#45;&gt;COMPARABLE -->
<g id="edge7" class="edge">
<title>SIMPLE_DURATION&#45;&gt;COMPARABLE</title>
<path fill="none" stroke="black" d="M180.42,-186.5C255.98,-186.5 365.25,-186.5 365.25,-186.5 365.25,-186.5 365.25,-192.56 365.25,-192.56"/>
<polygon fill="none" stroke="black" points="361.75,-192.56 365.25,-202.56 368.75,-192.56 361.75,-192.56"/>
</g>
<!-- SIMPLE_TIME -->
<g id="node13" class="node">
<title>SIMPLE_TIME</title>
<path fill="none" stroke="black" d="M150.62,-132.5C150.62,-132.5 69.38,-132.5 69.38,-132.5 63.38,-132.5 57.38,-126.5 57.38,-120.5 57.38,-120.5 57.38,-108.5 57.38,-108.5 57.38,-102.5 63.38,-96.5 69.38,-96.5 69.38,-96.5 150.62,-96.5 150.62,-96.5 156.62,-96.5 162.62,-102.5 162.62,-108.5 162.62,-108.5 162.62,-120.5 162.62,-120.5 162.62,-126.5 156.62,-132.5 150.62,-132.5"/>
<text xml:space="preserve" text-anchor="middle" x="110" y="-109.45" font-family="Times New Roman,serif" font-size="14.00">SIMPLE_TIME</text>
</g>
<!-- SIMPLE_TIME&#45;&gt;COMPARABLE -->
<g id="edge8" class="edge">
<title>SIMPLE_TIME&#45;&gt;COMPARABLE</title>
<path fill="none" stroke="black" d="M162.83,-114.5C235.18,-114.5 356.25,-114.5 356.25,-114.5 356.25,-114.5 356.25,-192.67 356.25,-192.67"/>
<polygon fill="none" stroke="black" points="352.75,-192.67 356.25,-202.67 359.75,-192.67 352.75,-192.67"/>
</g>
<!-- LIB_TESTS -->
<g id="node14" class="node">
<title>LIB_TESTS</title>
<path fill="none" stroke="black" d="M140.12,-636.5C140.12,-636.5 79.88,-636.5 79.88,-636.5 73.88,-636.5 67.88,-630.5 67.88,-624.5 67.88,-624.5 67.88,-612.5 67.88,-612.5 67.88,-606.5 73.88,-600.5 79.88,-600.5 79.88,-600.5 140.12,-600.5 140.12,-600.5 146.12,-600.5 152.12,-606.5 152.12,-612.5 152.12,-612.5 152.12,-624.5 152.12,-624.5 152.12,-630.5 146.12,-636.5 140.12,-636.5"/>
<text xml:space="preserve" text-anchor="middle" x="110" y="-613.45" font-family="Times New Roman,serif" font-size="14.00">LIB_TESTS</text>
</g>
<!-- TEST_SET_BASE -->
<g id="node15" class="node">
<title>TEST_SET_BASE</title>
<path fill="none" stroke="black" d="M449.75,-636.5C449.75,-636.5 353.5,-636.5 353.5,-636.5 347.5,-636.5 341.5,-630.5 341.5,-624.5 341.5,-624.5 341.5,-612.5 341.5,-612.5 341.5,-606.5 347.5,-600.5 353.5,-600.5 353.5,-600.5 449.75,-600.5 449.75,-600.5 455.75,-600.5 461.75,-606.5 461.75,-612.5 461.75,-612.5 461.75,-624.5 461.75,-624.5 461.75,-630.5 455.75,-636.5 449.75,-636.5"/>
<text xml:space="preserve" text-anchor="middle" x="401.62" y="-613.45" font-family="Times New Roman,serif" font-size="14.00">TEST_SET_BASE</text>
</g>
<!-- LIB_TESTS&#45;&gt;TEST_SET_BASE -->
<g id="edge9" class="edge">
<title>LIB_TESTS&#45;&gt;TEST_SET_BASE</title>
<path fill="none" stroke="black" d="M152.4,-618.5C152.4,-618.5 329.65,-618.5 329.65,-618.5"/>
<polygon fill="none" stroke="black" points="329.65,-622 339.65,-618.5 329.65,-615 329.65,-622"/>
</g>
<!-- TEST_APP -->
<g id="node16" class="node">
<title>TEST_APP</title>
<path fill="none" stroke="black" d="M137.88,-708.5C137.88,-708.5 82.12,-708.5 82.12,-708.5 76.12,-708.5 70.12,-702.5 70.12,-696.5 70.12,-696.5 70.12,-684.5 70.12,-684.5 70.12,-678.5 76.12,-672.5 82.12,-672.5 82.12,-672.5 137.88,-672.5 137.88,-672.5 143.88,-672.5 149.88,-678.5 149.88,-684.5 149.88,-684.5 149.88,-696.5 149.88,-696.5 149.88,-702.5 143.88,-708.5 137.88,-708.5"/>
<text xml:space="preserve" text-anchor="middle" x="110" y="-685.45" font-family="Times New Roman,serif" font-size="14.00">TEST_APP</text>
</g>
</g>
</svg>
