<?xml version="1.0" encoding="UTF-8" standalone="no"?>
<!DOCTYPE svg PUBLIC "-//W3C//DTD SVG 1.1//EN"
 "http://www.w3.org/Graphics/SVG/1.1/DTD/svg11.dtd">
<!-- Generated by graphviz version 14.1.1 (20251213.1925)
 -->
<!-- Title: Dependencies Pages: 1 -->
<svg width="354pt" height="357pt"
 viewBox="0.00 0.00 354.00 357.00" xmlns="http://www.w3.org/2000/svg" xmlns:xlink="http://www.w3.org/1999/xlink">
<g id="graph0" class="graph" transform="scale(1 1) rotate(0) translate(4 352.5)">
<title>Dependencies</title>
<polygon fill="white" stroke="none" points="-4,4 -4,-352.5 350.25,-352.5 350.25,4 -4,4"/>
<text xml:space="preserve" text-anchor="middle" x="173.12" y="-7.2" font-family="Times New Roman,serif" font-size="14.00">simple_datetime &#45; Dependencies</text>
<!-- simple_datetime -->
<g id="node1" class="node">
<title>simple_datetime</title>
<polygon fill="lightblue" stroke="black" points="106.75,-204.5 0,-204.5 0,-168.5 106.75,-168.5 106.75,-204.5"/>
<text xml:space="preserve" text-anchor="middle" x="53.38" y="-181.45" font-family="Times New Roman,serif" font-size="14.00">simple_datetime</text>
</g>
<!-- simple_mml -->
<g id="node2" class="node">
<title>simple_mml</title>
<polygon fill="lightblue" stroke="black" points="341.38,-348.5 255.62,-348.5 255.62,-312.5 341.38,-312.5 341.38,-348.5"/>
<text xml:space="preserve" text-anchor="middle" x="298.5" y="-325.45" font-family="Times New Roman,serif" font-size="14.00">simple_mml</text>
</g>
<!-- simple_datetime&#45;&gt;simple_mml -->
<g id="edge1" class="edge">
<title>simple_datetime&#45;&gt;simple_mml</title>
<path fill="none" stroke="black" stroke-dasharray="5,2" d="M53.25,-204.74C53.25,-243.49 53.25,-330.5 53.25,-330.5 53.25,-330.5 243.71,-330.5 243.71,-330.5"/>
<polygon fill="black" stroke="black" points="243.71,-334 253.71,-330.5 243.71,-327 243.71,-334"/>
</g>
<!-- simple_testing -->
<g id="node3" class="node">
<title>simple_testing</title>
<polygon fill="lightblue" stroke="black" points="346.25,-276.5 250.75,-276.5 250.75,-240.5 346.25,-240.5 346.25,-276.5"/>
<text xml:space="preserve" text-anchor="middle" x="298.5" y="-253.45" font-family="Times New Roman,serif" font-size="14.00">simple_testing</text>
</g>
<!-- simple_datetime&#45;&gt;simple_testing -->
<g id="edge2" class="edge">
<title>simple_datetime&#45;&gt;simple_testing</title>
<path fill="none" stroke="black" stroke-dasharray="5,2" d="M107.18,-192.5C168.77,-192.5 261.25,-192.5 261.25,-192.5 261.25,-192.5 261.25,-228.6 261.25,-228.6"/>
<polygon fill="black" stroke="black" points="257.75,-228.6 261.25,-238.6 264.75,-228.6 257.75,-228.6"/>
</g>
<!-- base -->
<g id="node4" class="node">
<title>base</title>
<polygon fill="lightgray" stroke="black" points="325.5,-204.5 271.5,-204.5 271.5,-168.5 325.5,-168.5 325.5,-204.5"/>
<text xml:space="preserve" text-anchor="middle" x="298.5" y="-181.45" font-family="Times New Roman,serif" font-size="14.00">base</text>
</g>
<!-- simple_datetime&#45;&gt;base -->
<g id="edge3" class="edge">
<title>simple_datetime&#45;&gt;base</title>
<path fill="none" stroke="black" stroke-dasharray="5,2" d="M107.17,-180.5C107.17,-180.5 259.5,-180.5 259.5,-180.5"/>
<polygon fill="black" stroke="black" points="259.5,-184 269.5,-180.5 259.49,-177 259.5,-184"/>
</g>
<!-- time -->
<g id="node5" class="node">
<title>time</title>
<polygon fill="lightgray" stroke="black" points="325.5,-132.5 271.5,-132.5 271.5,-96.5 325.5,-96.5 325.5,-132.5"/>
<text xml:space="preserve" text-anchor="middle" x="298.5" y="-109.45" font-family="Times New Roman,serif" font-size="14.00">time</text>
</g>
<!-- simple_datetime&#45;&gt;time -->
<g id="edge4" class="edge">
<title>simple_datetime&#45;&gt;time</title>
<path fill="none" stroke="black" stroke-dasharray="5,2" d="M71.25,-168.33C71.25,-147 71.25,-114.5 71.25,-114.5 71.25,-114.5 259.57,-114.5 259.57,-114.5"/>
<polygon fill="black" stroke="black" points="259.57,-118 269.57,-114.5 259.57,-111 259.57,-118"/>
</g>
<!-- testing -->
<g id="node6" class="node">
<title>testing</title>
<polygon fill="lightgray" stroke="black" points="325.5,-60.5 271.5,-60.5 271.5,-24.5 325.5,-24.5 325.5,-60.5"/>
<text xml:space="preserve" text-anchor="middle" x="298.5" y="-37.45" font-family="Times New Roman,serif" font-size="14.00">testing</text>
</g>
<!-- simple_datetime&#45;&gt;testing -->
<g id="edge5" class="edge">
<title>simple_datetime&#45;&gt;testing</title>
<path fill="none" stroke="black" stroke-dasharray="5,2" d="M35.25,-168.26C35.25,-129.51 35.25,-42.5 35.25,-42.5 35.25,-42.5 259.81,-42.5 259.81,-42.5"/>
<polygon fill="black" stroke="black" points="259.81,-46 269.81,-42.5 259.81,-39 259.81,-46"/>
</g>
</g>
</svg>
